<svg xmlns="http://www.w3.org/2000/svg" viewBox="0 0 760 460" width="760" height="460" role="img" aria-labelledby="t d">
<title id="t">economic_model: kernel against kernel RK4 at dt/8</title>
<desc id="d">Storages under rk4 (markers) over the kernel RK4 at dt/8 reference (line), and the largest scaled difference from that reference over time for kernel RK4, Euler and expm.</desc>
<style>
  .bg { fill: #fcfcfb; } .ink { fill: #0b0b0b; } .ink2 { fill: #52514e; } .muted { fill: #898781; }
  .grid { stroke: #e1e0d9; stroke-width: 1; } .axis { stroke: #c3c2b7; stroke-width: 1; }
  .ref { stroke: #0b0b0b; stroke-width: 1.5; fill: none; }
  text { font-family: system-ui, -apple-system, "Segoe UI", sans-serif; }
  .s0 { stroke: #2a78d6; } .f0 { fill: #2a78d6; }
  .s1 { stroke: #eb6834; } .f1 { fill: #eb6834; }
  .s2 { stroke: #1baf7a; } .f2 { fill: #1baf7a; }
  .s3 { stroke: #eda100; } .f3 { fill: #eda100; }
  .s4 { stroke: #e87ba4; } .f4 { fill: #e87ba4; }
  .s5 { stroke: #008300; } .f5 { fill: #008300; }
  .s6 { stroke: #6250d6; } .f6 { fill: #6250d6; }
  .s7 { stroke: #e34948; } .f7 { fill: #e34948; }
  @media (prefers-color-scheme: dark) {
    .bg { fill: #1a1a19; } .ink { fill: #f0efec; } .ink2 { fill: #c3c2b7; }
    .grid { stroke: #2c2c2a; } .axis { stroke: #383835; } .ref { stroke: #f0efec; }
    .s0 { stroke: #3987e5; } .f0 { fill: #3987e5; }
    .s1 { stroke: #d95926; } .f1 { fill: #d95926; }
    .s2 { stroke: #199e70; } .f2 { fill: #199e70; }
    .s3 { stroke: #c98500; } .f3 { fill: #c98500; }
    .s4 { stroke: #d55181; } .f4 { fill: #d55181; }
    .s5 { stroke: #008300; } .f5 { fill: #008300; }
    .s6 { stroke: #9085e9; } .f6 { fill: #9085e9; }
    .s7 { stroke: #e66767; } .f7 { fill: #e66767; }
  }
</style>
<rect class="bg" x="0" y="0" width="760" height="460" rx="8"/>
<text class="ink" x="16.0" y="24.0" font-size="14" text-anchor="start" font-weight="700">economic_model</text>
<text class="ink2" x="146.0" y="24.0" font-size="11" text-anchor="start">line: kernel RK4 at dt/8   markers: kernel rk4 (the model's own method)</text>
<text class="ink" x="52.0" y="50.0" font-size="12" text-anchor="start" font-weight="600">inventory</text>
<line class="grid" x1="52.0" x2="320.0" y1="142.9" y2="142.9"/>
<text class="muted" x="46.0" y="146.9" font-size="10" text-anchor="end">20</text>
<line class="grid" x1="52.0" x2="320.0" y1="86.3" y2="86.3"/>
<text class="muted" x="46.0" y="90.3" font-size="10" text-anchor="end">40</text>
<line class="axis" x1="52.0" x2="320.0" y1="196.0" y2="196.0"/>
<text class="muted" x="52.0" y="210.0" font-size="10" text-anchor="middle">0</text>
<text class="muted" x="119.0" y="210.0" font-size="10" text-anchor="middle">25</text>
<text class="muted" x="186.0" y="210.0" font-size="10" text-anchor="middle">50</text>
<text class="muted" x="253.0" y="210.0" font-size="10" text-anchor="middle">75</text>
<text class="muted" x="320.0" y="210.0" font-size="10" text-anchor="middle">100</text>
<text class="muted" x="320.0" y="222.0" font-size="10" text-anchor="end">t</text>
<polyline class="ref" points="52.0,58.0 52.5,58.0 53.3,58.1 53.9,58.3 54.7,58.5 55.2,58.8 56.0,59.1 56.6,59.4 57.4,59.9 57.9,60.2 58.7,60.7 59.2,61.1 60.0,61.7 60.6,62.1 61.4,62.7 61.9,63.1 62.7,63.8 63.3,64.2 64.1,64.9 64.6,65.3 65.4,66.0 65.9,66.5 66.7,67.2 67.3,67.7 68.1,68.4 68.6,68.9 69.4,69.6 70.0,70.1 70.8,70.8 71.3,71.3 72.1,72.0 72.6,72.5 73.4,73.2 74.0,73.7 74.8,74.5 75.3,75.0 76.1,75.7 76.7,76.2 77.5,77.0 78.0,77.5 78.8,78.2 79.3,78.7 80.1,79.5 80.7,80.0 81.5,80.7 82.0,81.2 82.8,81.9 83.4,82.4 84.2,83.2 84.7,83.7 85.5,84.4 86.0,84.9 86.8,85.7 87.4,86.2 88.2,86.9 88.7,87.4 89.5,88.2 90.1,88.7 90.9,89.4 91.4,89.9 92.2,90.7 92.7,91.1 93.5,91.9 94.1,92.4 94.9,93.1 95.4,93.6 96.2,94.4 96.8,94.9 97.6,95.6 98.1,96.1 98.9,96.8 99.4,97.3 100.2,98.1 100.8,98.5 101.6,99.3 102.1,99.8 102.9,100.5 103.5,101.0 104.3,101.7 104.8,102.2 105.6,102.9 106.1,103.4 106.9,104.2 107.5,104.7 108.3,105.4 108.8,105.9 109.6,106.6 110.2,107.1 111.0,107.8 111.5,108.3 112.3,109.0 112.8,109.5 113.6,110.2 114.2,110.7 115.0,111.4 115.5,111.9 116.3,112.6 116.9,113.1 117.7,113.8 118.2,114.3 119.0,115.0 119.5,115.5 120.3,116.2 120.9,116.7 121.7,117.4 122.2,117.9 123.0,118.6 123.6,119.1 124.4,119.8 124.9,120.3 125.7,121.0 126.2,121.5 127.0,122.2 127.6,122.6 128.4,123.3 128.9,123.8 129.7,124.5 130.3,125.0 131.1,125.7 131.6,126.1 132.4,126.8 132.9,127.3 133.7,128.0 134.3,128.5 135.1,129.2 135.6,129.6 136.4,130.3 137.0,130.8 137.8,131.5 138.3,131.9 139.1,132.6 139.6,133.1 140.4,133.8 141.0,134.2 141.8,134.9 142.3,135.4 143.1,136.1 143.7,136.5 144.5,137.2 145.0,137.6 145.8,138.3 146.3,138.8 147.1,139.4 147.7,139.9 148.5,140.6 149.0,141.0 149.8,141.7 150.4,142.1 151.2,142.8 151.7,143.2 152.5,143.9 153.0,144.3 153.8,145.0 154.4,145.4 155.2,146.1 155.7,146.5 156.5,147.2 157.1,147.6 157.9,148.3 158.4,148.7 159.2,149.4 159.7,149.8 160.5,150.4 161.1,150.9 161.9,151.5 162.4,151.9 163.2,152.6 163.8,153.0 164.6,153.6 165.1,154.0 165.9,154.7 166.4,155.1 167.2,155.7 167.8,156.1 168.6,156.8 169.1,157.2 169.9,157.8 170.5,158.2 171.3,158.8 171.8,159.2 172.6,159.8 173.1,160.2 173.9,160.8 174.5,161.2 175.3,161.9 175.8,162.2 176.6,162.8 177.2,163.2 178.0,163.8 178.5,164.2 179.3,164.8 179.8,165.2 180.6,165.8 181.2,166.2 182.0,166.7 182.5,167.1 183.3,167.7 183.9,168.1 184.7,168.6 185.2,169.0 186.0,169.6 186.8,170.1 187.3,170.5 188.1,171.1 188.7,171.4 189.5,172.0 190.0,172.3 190.8,172.9 191.4,173.2 192.2,173.7 192.7,174.1 193.5,174.6 194.0,175.0 194.8,175.5 195.4,175.8 196.2,176.3 196.7,176.7 197.5,177.2 198.1,177.5 198.9,178.0 199.4,178.3 200.2,178.8 200.7,179.1 201.5,179.6 202.1,179.9 202.9,180.4 203.4,180.7 204.2,181.2 204.8,181.5 205.6,181.9 206.1,182.2 206.9,182.7 207.4,183.0 208.2,183.4 208.8,183.7 209.6,184.1 210.1,184.4 210.9,184.8 211.5,185.1 212.3,185.5 212.8,185.8 213.6,186.2 214.1,186.4 214.9,186.8 215.5,187.1 216.3,187.5 216.8,187.7 217.6,188.1 218.2,188.3 219.0,188.7 219.5,188.9 220.3,189.2 220.8,189.5 221.6,189.8 222.2,190.0 223.0,190.3 223.5,190.5 224.3,190.8 224.9,191.0 225.7,191.3 226.2,191.5 227.0,191.8 227.5,192.0 228.3,192.2 228.9,192.4 229.7,192.6 230.2,192.8 231.0,193.0 231.6,193.2 232.4,193.4 232.9,193.6 233.7,193.8 234.2,193.9 235.0,194.1 235.6,194.2 236.4,194.4 236.9,194.5 237.7,194.7 238.3,194.8 239.1,194.9 239.6,195.0 240.4,195.2 240.9,195.2 241.7,195.4 242.3,195.4 243.1,195.5 243.6,195.6 244.4,195.7 245.0,195.7 245.8,195.8 246.3,195.8 247.1,195.9 247.6,195.9 248.4,195.9 249.0,196.0 249.8,196.0 250.3,196.0 251.1,196.0 251.7,196.0 252.5,196.0 253.0,196.0 253.8,195.9 254.3,195.9 255.1,195.9 255.7,195.8 256.5,195.8 257.0,195.7 257.8,195.7 258.4,195.6 259.2,195.5 259.7,195.5 260.5,195.4 261.0,195.3 261.8,195.2 262.4,195.1 263.2,194.9 263.7,194.9 264.5,194.7 265.1,194.6 265.9,194.4 266.4,194.3 267.2,194.2 267.7,194.1 268.5,193.9 269.1,193.7 269.9,193.6 270.4,193.4 271.2,193.2 271.8,193.1 272.6,192.9 273.1,192.7 273.9,192.5 274.4,192.4 275.2,192.1 275.8,192.0 276.6,191.7 277.1,191.6 277.9,191.3 278.5,191.2 279.3,190.9 279.8,190.8 280.6,190.5 281.1,190.3 281.9,190.1 282.5,189.9 283.3,189.7 283.8,189.5 284.6,189.2 285.2,189.1 286.0,188.8 286.5,188.6 287.3,188.4 287.8,188.2 288.6,187.9 289.2,187.8 290.0,187.5 290.5,187.3 291.3,187.1 291.9,186.9 292.7,186.6 293.2,186.5 294.0,186.2 294.5,186.1 295.3,185.8 295.9,185.7 296.7,185.4 297.2,185.3 298.0,185.0 298.6,184.9 299.4,184.7 299.9,184.5 300.7,184.3 301.2,184.1 302.0,183.9 302.6,183.8 303.4,183.6 303.9,183.5 304.7,183.3 305.3,183.1 306.1,182.9 306.6,182.8 307.4,182.6 307.9,182.5 308.7,182.4 309.3,182.2 310.1,182.1 310.6,182.0 311.4,181.8 312.0,181.7 312.8,181.6 313.3,181.5 314.1,181.4 314.6,181.3 315.4,181.2 316.0,181.1 316.8,181.0 317.3,180.9 318.1,180.8 318.7,180.8 319.5,180.7 320.0,180.6"><title>RK4 dt/8</title></polyline>
<circle class="f0" cx="52.0" cy="58.0" r="4" stroke="none"><title>kernel rk4 t=0: 50</title></circle>
<circle class="f0" cx="68.6" cy="68.9" r="4" stroke="none"><title>kernel rk4 t=6.2: 46.2</title></circle>
<circle class="f0" cx="85.2" cy="84.2" r="4" stroke="none"><title>kernel rk4 t=12.4: 40.7</title></circle>
<circle class="f0" cx="101.8" cy="99.5" r="4" stroke="none"><title>kernel rk4 t=18.6: 35.3</title></circle>
<circle class="f0" cx="118.5" cy="114.6" r="4" stroke="none"><title>kernel rk4 t=24.8: 30</title></circle>
<circle class="f0" cx="135.1" cy="129.2" r="4" stroke="none"><title>kernel rk4 t=31: 24.8</title></circle>
<circle class="f0" cx="151.7" cy="143.2" r="4" stroke="none"><title>kernel rk4 t=37.2: 19.9</title></circle>
<circle class="f0" cx="168.3" cy="156.6" r="4" stroke="none"><title>kernel rk4 t=43.4: 15.2</title></circle>
<circle class="f0" cx="184.9" cy="168.8" r="4" stroke="none"><title>kernel rk4 t=49.6: 10.8</title></circle>
<circle class="f0" cx="201.5" cy="179.6" r="4" stroke="none"><title>kernel rk4 t=55.8: 7.02</title></circle>
<circle class="f0" cx="218.2" cy="188.3" r="4" stroke="none"><title>kernel rk4 t=62: 3.95</title></circle>
<circle class="f0" cx="234.8" cy="194.0" r="4" stroke="none"><title>kernel rk4 t=68.2: 1.92</title></circle>
<circle class="f0" cx="251.4" cy="196.0" r="4" stroke="none"><title>kernel rk4 t=74.4: 1.23</title></circle>
<circle class="f0" cx="268.0" cy="194.0" r="4" stroke="none"><title>kernel rk4 t=80.6: 1.94</title></circle>
<circle class="f0" cx="284.6" cy="189.2" r="4" stroke="none"><title>kernel rk4 t=86.8: 3.62</title></circle>
<circle class="f0" cx="301.2" cy="184.1" r="4" stroke="none"><title>kernel rk4 t=93: 5.42</title></circle>
<circle class="f0" cx="317.9" cy="180.9" r="4" stroke="none"><title>kernel rk4 t=99.2: 6.58</title></circle>
<text class="ink" x="326.0" y="184.6" font-size="10" text-anchor="start">RK4 dt/8</text>
<text class="ink" x="432.0" y="50.0" font-size="12" text-anchor="start" font-weight="600">price</text>
<line class="grid" x1="432.0" x2="700.0" y1="151.8" y2="151.8"/>
<text class="muted" x="426.0" y="155.8" font-size="10" text-anchor="end">5</text>
<line class="grid" x1="432.0" x2="700.0" y1="93.7" y2="93.7"/>
<text class="muted" x="426.0" y="97.7" font-size="10" text-anchor="end">10</text>
<line class="axis" x1="432.0" x2="700.0" y1="196.0" y2="196.0"/>
<text class="muted" x="432.0" y="210.0" font-size="10" text-anchor="middle">0</text>
<text class="muted" x="499.0" y="210.0" font-size="10" text-anchor="middle">25</text>
<text class="muted" x="566.0" y="210.0" font-size="10" text-anchor="middle">50</text>
<text class="muted" x="633.0" y="210.0" font-size="10" text-anchor="middle">75</text>
<text class="muted" x="700.0" y="210.0" font-size="10" text-anchor="middle">100</text>
<text class="muted" x="700.0" y="222.0" font-size="10" text-anchor="end">t</text>
<polyline class="ref" points="432.0,93.7 432.5,103.6 433.3,116.8 433.9,124.5 434.7,134.8 435.2,140.8 436.0,148.7 436.6,153.4 437.4,159.5 437.9,163.2 438.7,167.9 439.2,170.7 440.0,174.5 440.6,176.6 441.4,179.5 441.9,181.2 442.7,183.4 443.3,184.7 444.1,186.5 444.6,187.5 445.4,188.8 445.9,189.6 446.7,190.6 447.3,191.2 448.1,192.0 448.6,192.5 449.4,193.1 450.0,193.5 450.8,193.9 451.3,194.2 452.1,194.6 452.6,194.8 453.4,195.0 454.0,195.2 454.8,195.4 455.3,195.5 456.1,195.6 456.7,195.7 457.5,195.8 458.0,195.9 458.8,195.9 459.3,195.9 460.1,196.0 460.7,196.0 461.5,196.0 462.0,196.0 462.8,196.0 463.4,196.0 464.2,196.0 464.7,195.9 465.5,195.9 466.0,195.9 466.8,195.8 467.4,195.8 468.2,195.7 468.7,195.7 469.5,195.6 470.1,195.6 470.9,195.5 471.4,195.5 472.2,195.4 472.7,195.4 473.5,195.3 474.1,195.2 474.9,195.1 475.4,195.1 476.2,195.0 476.8,194.9 477.6,194.9 478.1,194.8 478.9,194.7 479.4,194.6 480.2,194.5 480.8,194.5 481.6,194.4 482.1,194.3 482.9,194.2 483.5,194.2 484.3,194.0 484.8,194.0 485.6,193.9 486.1,193.8 486.9,193.7 487.5,193.6 488.3,193.5 488.8,193.4 489.6,193.3 490.2,193.2 491.0,193.1 491.5,193.1 492.3,192.9 492.8,192.9 493.6,192.7 494.2,192.7 495.0,192.5 495.5,192.4 496.3,192.3 496.9,192.2 497.7,192.1 498.2,192.0 499.0,191.9 499.5,191.8 500.3,191.7 500.9,191.6 501.7,191.4 502.2,191.3 503.0,191.2 503.6,191.1 504.4,191.0 504.9,190.9 505.7,190.7 506.2,190.6 507.0,190.5 507.6,190.4 508.4,190.2 508.9,190.1 509.7,189.9 510.3,189.8 511.1,189.7 511.6,189.6 512.4,189.4 512.9,189.3 513.7,189.1 514.3,189.0 515.1,188.8 515.6,188.7 516.4,188.5 517.0,188.4 517.8,188.2 518.3,188.1 519.1,187.9 519.6,187.8 520.4,187.6 521.0,187.5 521.8,187.3 522.3,187.2 523.1,187.0 523.7,186.8 524.5,186.6 525.0,186.5 525.8,186.3 526.3,186.1 527.1,185.9 527.7,185.8 528.5,185.5 529.0,185.4 529.8,185.2 530.4,185.0 531.2,184.8 531.7,184.6 532.5,184.4 533.0,184.2 533.8,184.0 534.4,183.8 535.2,183.6 535.7,183.4 536.5,183.1 537.1,182.9 537.9,182.7 538.4,182.5 539.2,182.2 539.7,182.0 540.5,181.8 541.1,181.6 541.9,181.3 542.4,181.1 543.2,180.8 543.8,180.6 544.6,180.3 545.1,180.1 545.9,179.8 546.4,179.6 547.2,179.3 547.8,179.0 548.6,178.7 549.1,178.5 549.9,178.1 550.5,177.9 551.3,177.6 551.8,177.3 552.6,177.0 553.1,176.7 553.9,176.4 554.5,176.1 555.3,175.7 555.8,175.5 556.6,175.1 557.2,174.8 558.0,174.4 558.5,174.2 559.3,173.8 559.8,173.5 560.6,173.0 561.2,172.8 562.0,172.3 562.5,172.0 563.3,171.6 563.9,171.3 564.7,170.8 565.2,170.5 566.0,170.0 566.8,169.5 567.3,169.2 568.1,168.7 568.7,168.4 569.5,167.9 570.0,167.5 570.8,167.0 571.4,166.6 572.2,166.1 572.7,165.7 573.5,165.2 574.0,164.8 574.8,164.2 575.4,163.8 576.2,163.2 576.7,162.8 577.5,162.2 578.1,161.8 578.9,161.2 579.4,160.7 580.2,160.1 580.7,159.7 581.5,159.0 582.1,158.5 582.9,157.9 583.4,157.4 584.2,156.7 584.8,156.2 585.6,155.5 586.1,155.0 586.9,154.2 587.4,153.7 588.2,153.0 588.8,152.5 589.6,151.7 590.1,151.1 590.9,150.3 591.5,149.8 592.3,148.9 592.8,148.4 593.6,147.5 594.1,146.9 594.9,146.1 595.5,145.5 596.3,144.6 596.8,143.9 597.6,143.0 598.2,142.4 599.0,141.4 599.5,140.8 600.3,139.8 600.8,139.2 601.6,138.2 602.2,137.5 603.0,136.5 603.5,135.8 604.3,134.7 604.9,134.0 605.7,133.0 606.2,132.2 607.0,131.1 607.5,130.4 608.3,129.3 608.9,128.5 609.7,127.4 610.2,126.6 611.0,125.5 611.6,124.7 612.4,123.5 612.9,122.7 613.7,121.5 614.2,120.7 615.0,119.5 615.6,118.7 616.4,117.4 616.9,116.6 617.7,115.3 618.3,114.5 619.1,113.2 619.6,112.4 620.4,111.1 620.9,110.2 621.7,108.9 622.3,108.0 623.1,106.7 623.6,105.9 624.4,104.5 625.0,103.7 625.8,102.3 626.3,101.5 627.1,100.1 627.6,99.3 628.4,97.9 629.0,97.0 629.8,95.7 630.3,94.8 631.1,93.5 631.7,92.7 632.5,91.3 633.0,90.5 633.8,89.2 634.3,88.3 635.1,87.0 635.7,86.2 636.5,84.9 637.0,84.1 637.8,82.9 638.4,82.1 639.2,80.8 639.7,80.0 640.5,78.9 641.0,78.1 641.8,76.9 642.4,76.2 643.2,75.1 643.7,74.4 644.5,73.3 645.1,72.6 645.9,71.6 646.4,70.9 647.2,69.9 647.7,69.3 648.5,68.4 649.1,67.8 649.9,66.9 650.4,66.4 651.2,65.6 651.8,65.1 652.6,64.3 653.1,63.9 653.9,63.2 654.4,62.7 655.2,62.1 655.8,61.7 656.6,61.2 657.1,60.9 657.9,60.4 658.5,60.1 659.3,59.7 659.8,59.4 660.6,59.1 661.1,58.9 661.9,58.7 662.5,58.5 663.3,58.3 663.8,58.2 664.6,58.1 665.2,58.1 666.0,58.0 666.5,58.0 667.3,58.0 667.8,58.1 668.6,58.2 669.2,58.2 670.0,58.4 670.5,58.5 671.3,58.8 671.9,58.9 672.7,59.2 673.2,59.4 674.0,59.8 674.5,60.0 675.3,60.4 675.9,60.7 676.7,61.2 677.2,61.5 678.0,62.0 678.6,62.4 679.4,62.9 679.9,63.3 680.7,63.9 681.2,64.3 682.0,64.9 682.6,65.4 683.4,66.0 683.9,66.5 684.7,67.2 685.3,67.7 686.1,68.4 686.6,68.9 687.4,69.7 687.9,70.2 688.7,70.9 689.3,71.5 690.1,72.3 690.6,72.8 691.4,73.6 692.0,74.1 692.8,74.9 693.3,75.5 694.1,76.3 694.6,76.8 695.4,77.7 696.0,78.2 696.8,79.0 697.3,79.6 698.1,80.4 698.7,81.0 699.5,81.8 700.0,82.3"><title>RK4 dt/8</title></polyline>
<circle class="f0" cx="432.0" cy="93.7" r="4" stroke="none"><title>kernel rk4 t=0: 10</title></circle>
<circle class="f0" cx="448.6" cy="192.5" r="4" stroke="none"><title>kernel rk4 t=6.2: 1.5</title></circle>
<circle class="f0" cx="465.2" cy="195.9" r="4" stroke="none"><title>kernel rk4 t=12.4: 1.2</title></circle>
<circle class="f0" cx="481.8" cy="194.4" r="4" stroke="none"><title>kernel rk4 t=18.6: 1.34</title></circle>
<circle class="f0" cx="498.5" cy="192.0" r="4" stroke="none"><title>kernel rk4 t=24.8: 1.54</title></circle>
<circle class="f0" cx="515.1" cy="188.8" r="4" stroke="none"><title>kernel rk4 t=31: 1.81</title></circle>
<circle class="f0" cx="531.7" cy="184.6" r="4" stroke="none"><title>kernel rk4 t=37.2: 2.17</title></circle>
<circle class="f0" cx="548.3" cy="178.8" r="4" stroke="none"><title>kernel rk4 t=43.4: 2.67</title></circle>
<circle class="f0" cx="564.9" cy="170.7" r="4" stroke="none"><title>kernel rk4 t=49.6: 3.37</title></circle>
<circle class="f0" cx="581.5" cy="159.0" r="4" stroke="none"><title>kernel rk4 t=55.8: 4.38</title></circle>
<circle class="f0" cx="598.2" cy="142.4" r="4" stroke="none"><title>kernel rk4 t=62: 5.81</title></circle>
<circle class="f0" cx="614.8" cy="119.9" r="4" stroke="none"><title>kernel rk4 t=68.2: 7.74</title></circle>
<circle class="f0" cx="631.4" cy="93.1" r="4" stroke="none"><title>kernel rk4 t=74.4: 10</title></circle>
<circle class="f0" cx="648.0" cy="69.0" r="4" stroke="none"><title>kernel rk4 t=80.6: 12.1</title></circle>
<circle class="f0" cx="664.6" cy="58.1" r="4" stroke="none"><title>kernel rk4 t=86.8: 13.1</title></circle>
<circle class="f0" cx="681.2" cy="64.3" r="4" stroke="none"><title>kernel rk4 t=93: 12.5</title></circle>
<circle class="f0" cx="697.9" cy="80.1" r="4" stroke="none"><title>kernel rk4 t=99.2: 11.2</title></circle>
<text class="ink" x="706.0" y="86.3" font-size="10" text-anchor="start">RK4 dt/8</text>
<text class="ink" x="52.0" y="246.0" font-size="12" text-anchor="start" font-weight="600">Largest scaled |kernel − kernel RK4 at dt/8| over the storages  (log scale)</text>
<line class="grid" x1="52.0" x2="668.0" y1="422.0" y2="422.0"/>
<text class="muted" x="46.0" y="426.0" font-size="10" text-anchor="end">1e-13</text>
<line class="grid" x1="52.0" x2="668.0" y1="391.5" y2="391.5"/>
<text class="muted" x="46.0" y="395.5" font-size="10" text-anchor="end">1e-11</text>
<line class="grid" x1="52.0" x2="668.0" y1="360.9" y2="360.9"/>
<text class="muted" x="46.0" y="364.9" font-size="10" text-anchor="end">1e-9</text>
<line class="grid" x1="52.0" x2="668.0" y1="330.4" y2="330.4"/>
<text class="muted" x="46.0" y="334.4" font-size="10" text-anchor="end">1e-7</text>
<line class="grid" x1="52.0" x2="668.0" y1="299.8" y2="299.8"/>
<text class="muted" x="46.0" y="303.8" font-size="10" text-anchor="end">1e-5</text>
<line class="grid" x1="52.0" x2="668.0" y1="269.3" y2="269.3"/>
<text class="muted" x="46.0" y="273.3" font-size="10" text-anchor="end">1e-3</text>
<line class="axis" x1="52.0" x2="668.0" y1="422.0" y2="422.0"/>
<text class="muted" x="52.0" y="436.0" font-size="10" text-anchor="middle">0</text>
<text class="muted" x="206.0" y="436.0" font-size="10" text-anchor="middle">25</text>
<text class="muted" x="360.0" y="436.0" font-size="10" text-anchor="middle">50</text>
<text class="muted" x="514.0" y="436.0" font-size="10" text-anchor="middle">75</text>
<text class="muted" x="668.0" y="436.0" font-size="10" text-anchor="middle">100</text>
<text class="muted" x="668.0" y="448.0" font-size="10" text-anchor="end">t</text>
<polyline class="s0" points="52.6,357.4 54.5,349.2 55.7,347.1 57.5,345.4 58.8,344.8 60.6,344.2 61.9,343.9 63.7,343.8 64.3,343.8 65.6,343.8 67.4,344.0 68.6,344.2 70.5,344.5 71.7,344.7 73.6,345.1 74.8,345.4 76.6,345.9 77.9,346.3 79.7,346.8 81.0,347.2 82.8,347.8 84.0,348.2 85.9,348.8 87.1,349.2 89.0,349.9 90.2,350.3 92.0,351.0 93.3,351.5 95.1,352.1 96.4,352.6 98.2,353.3 99.4,353.8 101.3,354.5 102.5,354.9 104.4,355.7 105.6,356.1 107.4,356.9 108.7,357.3 110.5,358.1 111.8,358.5 113.6,359.3 114.8,359.7 116.7,360.5 117.9,360.9 119.8,361.7 121.0,362.2 122.8,362.9 124.1,363.4 125.9,364.1 127.2,364.6 129.0,365.3 130.2,365.8 132.1,366.5 133.3,367.0 135.2,367.7 136.4,368.1 138.2,368.9 139.5,369.3 141.3,370.0 142.6,370.5 144.4,371.2 145.6,371.7 147.5,372.4 148.7,372.8 150.6,373.5 151.8,374.0 153.6,374.7 154.9,375.1 156.7,375.8 158.0,376.3 159.8,376.9 162.3,377.4 163.5,377.3 165.3,377.3 166.6,377.3 168.4,377.3 169.7,377.2 171.5,377.2 172.7,377.2 174.6,377.2 175.8,377.2 177.7,377.2 178.9,377.2 180.7,377.2 182.0,377.2 183.8,377.1 185.1,377.1 186.9,377.1 188.1,377.1 190.0,377.1 191.2,377.1 192.4,377.1 193.7,377.1 194.9,377.1 196.8,377.1 198.0,377.1 199.8,377.1 201.1,377.1 202.9,377.1 204.2,377.1 206.0,377.2 207.2,377.2 209.1,377.2 210.3,377.2 212.2,377.2 213.4,377.2 215.2,377.2 216.5,377.2 218.3,377.2 219.6,377.2 221.4,377.2 222.6,377.2 224.5,377.2 225.7,377.2 227.6,377.2 228.8,377.3 230.6,377.3 231.9,377.3 233.7,377.3 235.0,377.3 236.8,377.3 238.0,377.3 239.9,377.3 241.1,377.3 243.0,377.3 244.2,377.3 246.0,377.4 247.3,377.4 249.1,377.4 250.4,377.4 252.2,377.4 253.4,377.4 255.3,377.4 256.5,377.4 258.4,377.5 259.6,377.5 261.4,377.5 262.7,377.5 264.5,377.5 265.8,377.5 267.6,377.5 268.8,377.5 270.7,377.6 271.9,377.6 273.8,377.6 275.0,377.6 276.8,377.6 278.1,377.6 279.9,377.6 281.2,377.7 283.0,377.7 284.2,377.7 286.1,377.7 287.3,377.7 289.2,377.7 290.4,377.8 292.2,377.8 293.5,377.8 295.3,377.8 296.6,377.8 298.4,377.9 299.6,377.9 301.5,377.9 302.7,377.9 304.6,377.9 305.8,377.9 307.6,378.0 308.9,378.0 310.7,378.0 312.0,378.0 313.8,378.1 315.0,378.1 316.9,378.1 318.1,378.1 320.0,378.1 321.2,378.2 323.0,378.2 324.3,378.2 326.1,378.2 327.4,378.3 329.2,378.3 330.4,378.3 332.3,378.4 333.5,378.4 335.4,378.4 336.6,378.4 338.4,378.5 339.7,378.5 341.5,378.5 342.8,378.6 344.6,378.6 345.8,378.6 347.7,378.7 348.9,378.7 350.8,378.7 352.0,378.7 353.8,378.8 355.1,378.8 356.9,378.9 358.2,378.9 360.0,378.9 361.8,379.0 363.1,379.0 364.9,379.1 366.2,379.1 368.0,379.1 369.2,379.2 371.1,379.2 372.3,379.3 374.2,379.3 375.4,379.4 377.2,379.4 378.5,379.5 380.9,379.4 382.8,379.2 384.0,379.1 385.9,379.0 387.1,378.9 389.0,378.7 390.2,378.6 392.0,378.5 393.3,378.4 395.1,378.3 396.3,378.2 398.2,378.0 399.4,377.9 401.3,377.8 402.5,377.7 404.4,377.5 405.6,377.5 407.4,377.3 408.7,377.2 410.5,377.1 411.7,377.0 413.6,376.9 414.8,376.8 416.7,376.6 417.9,376.6 419.8,376.4 421.0,376.3 422.8,376.2 424.1,376.1 425.9,376.0 427.1,375.9 429.0,375.8 430.2,375.7 432.1,375.6 433.3,375.5 435.2,375.4 436.4,375.3 438.2,375.2 439.5,375.1 441.3,375.0 442.5,374.9 444.4,374.8 445.6,374.7 447.5,374.6 448.7,374.6 450.6,374.4 451.8,374.4 453.6,374.3 454.9,374.2 456.7,374.1 457.9,374.1 459.8,374.0 461.0,373.9 462.9,373.8 464.1,373.8 466.0,373.7 467.2,373.6 469.0,373.5 470.3,373.5 472.1,373.4 473.3,373.4 475.2,373.3 476.4,373.3 478.3,373.2 479.5,373.2 481.4,373.1 482.6,373.1 484.4,373.0 485.7,373.0 487.5,372.9 488.7,372.9 490.6,372.9 491.8,372.9 493.7,372.8 494.9,372.8 496.8,372.8 498.0,372.8 499.8,372.8 501.1,372.8 501.7,372.8 503.5,372.8 504.8,372.8 506.6,372.8 507.8,372.8 509.7,372.9 510.9,372.9 512.8,372.9 514.0,372.9 515.8,373.0 517.1,373.0 518.9,373.1 520.2,373.1 522.0,373.2 523.2,373.3 525.1,373.4 526.3,373.5 528.2,373.6 529.4,373.7 531.2,373.8 532.5,373.9 534.3,374.1 535.6,374.2 537.4,374.4 538.6,374.5 540.5,374.7 541.7,374.9 543.6,375.1 544.8,375.3 546.6,375.6 547.9,375.8 549.7,376.1 551.0,376.4 552.8,376.8 554.0,377.1 555.9,377.5 557.1,377.8 559.0,378.4 560.2,378.8 562.0,379.4 563.3,379.9 565.1,380.7 566.4,381.3 568.8,382.1 570.7,382.0 571.9,381.9 573.8,381.9 575.0,381.8 576.8,381.8 578.1,381.7 579.9,381.7 581.1,381.7 583.0,381.6 584.2,381.6 586.1,381.6 587.3,381.6 587.9,381.6 590.4,381.6 592.2,380.6 593.5,380.1 595.3,379.3 596.5,378.9 598.4,378.3 599.6,377.9 601.5,377.4 602.7,377.1 604.6,376.7 605.8,376.4 607.6,376.1 608.9,375.8 610.7,375.5 611.9,375.3 613.8,375.1 615.0,374.9 616.9,374.7 618.1,374.5 620.0,374.3 621.2,374.2 623.0,374.1 624.3,374.0 626.1,373.8 627.3,373.7 629.2,373.6 630.4,373.6 632.3,373.5 633.5,373.4 635.4,373.3 636.6,373.3 638.4,373.3 639.7,373.2 641.5,373.2 642.7,373.2 644.6,373.2 645.8,373.2 646.4,373.2 648.3,373.2 649.5,373.2 651.4,373.2 652.6,373.2 654.4,373.3 655.7,373.3 657.5,373.3 658.8,373.4 660.6,373.4 661.8,373.5 663.7,373.6 664.9,373.6 666.8,373.7 668.0,373.8" stroke-width="2" fill="none" stroke-linejoin="round"><title>RK4</title></polyline>
<polyline class="s1" points="52.6,270.4 54.5,262.2 55.7,260.1 57.5,258.4 58.8,257.7 60.6,257.1 61.9,256.9 63.7,256.8 64.3,256.7 65.6,256.8 67.4,256.9 68.6,257.1 70.5,257.4 71.7,257.6 73.6,258.0 74.8,258.3 76.6,258.8 77.9,259.1 79.7,259.6 81.0,260.0 82.8,260.5 84.0,260.9 85.9,261.5 87.1,261.9 89.0,262.5 90.2,262.9 92.0,263.6 93.3,264.0 95.1,264.7 96.4,265.1 98.2,265.8 99.4,266.2 101.3,266.9 102.5,267.3 104.4,268.0 105.6,268.5 107.4,269.2 108.7,269.6 110.5,270.3 111.8,270.8 113.6,271.5 114.8,271.9 116.7,272.6 117.9,273.1 119.8,273.8 121.0,274.2 122.8,274.9 124.1,275.4 125.9,276.1 127.2,276.5 129.0,277.2 130.2,277.7 132.1,278.4 133.3,278.8 135.2,279.5 136.4,280.0 138.2,280.7 139.5,281.1 141.3,281.8 142.6,282.2 144.4,282.9 145.6,283.4 147.5,284.0 148.7,284.5 150.6,285.2 151.8,285.6 154.3,285.7 156.1,285.6 157.3,285.5 159.2,285.4 160.4,285.3 162.3,285.3 163.5,285.2 165.3,285.1 166.6,285.1 168.4,285.0 169.7,284.9 171.5,284.8 172.7,284.8 174.6,284.7 175.8,284.7 177.7,284.6 178.9,284.5 180.7,284.5 182.0,284.4 183.8,284.4 185.1,284.3 186.9,284.2 188.1,284.2 190.0,284.1 191.2,284.1 193.1,284.0 194.3,284.0 196.1,283.9 197.4,283.8 199.2,283.8 200.5,283.7 202.3,283.7 203.5,283.6 205.4,283.6 206.6,283.5 208.5,283.4 209.7,283.4 211.5,283.3 212.8,283.3 214.6,283.2 215.9,283.2 217.7,283.1 218.9,283.1 220.8,283.0 222.0,283.0 223.9,282.9 225.1,282.8 226.9,282.8 228.2,282.7 230.0,282.7 231.3,282.6 233.1,282.5 234.3,282.5 236.2,282.4 237.4,282.4 239.3,282.3 240.5,282.3 242.3,282.2 243.6,282.2 245.4,282.1 246.7,282.0 248.5,282.0 249.7,281.9 251.6,281.9 252.8,281.8 254.7,281.7 255.9,281.7 257.7,281.6 259.0,281.6 260.8,281.5 262.1,281.4 263.9,281.4 265.1,281.3 267.0,281.3 268.2,281.2 270.1,281.1 271.3,281.1 273.1,281.0 274.4,281.0 276.2,280.9 277.5,280.8 279.3,280.8 280.5,280.7 282.4,280.6 283.6,280.6 285.5,280.5 286.7,280.5 288.5,280.4 289.8,280.3 291.6,280.3 292.9,280.2 294.7,280.1 295.9,280.1 297.8,280.0 299.0,280.0 300.9,279.9 302.1,279.8 303.9,279.8 305.2,279.7 307.0,279.6 308.3,279.6 310.1,279.5 311.3,279.4 313.2,279.4 314.4,279.3 316.3,279.2 317.5,279.2 319.3,279.1 320.6,279.0 322.4,279.0 323.7,278.9 325.5,278.8 326.7,278.8 328.6,278.7 329.8,278.6 331.7,278.6 332.9,278.5 334.7,278.4 336.0,278.4 337.8,278.3 339.1,278.2 340.9,278.1 342.1,278.1 344.0,278.0 345.2,277.9 347.1,277.9 348.3,277.8 350.1,277.7 351.4,277.7 353.2,277.6 354.5,277.5 356.3,277.4 357.5,277.4 359.4,277.3 361.2,277.2 362.5,277.1 364.3,277.1 365.5,277.0 367.4,276.9 368.6,276.9 370.5,276.8 371.7,276.7 373.6,276.6 374.8,276.6 376.6,276.5 377.9,276.4 379.7,276.3 380.9,276.3 382.8,276.2 384.0,276.1 385.9,276.0 387.1,276.0 389.0,275.9 390.2,275.8 392.0,275.8 393.3,275.7 395.1,275.6 396.3,275.5 398.2,275.5 399.4,275.4 401.3,275.3 402.5,275.3 404.4,275.2 405.6,275.1 407.4,275.0 408.7,275.0 410.5,274.9 411.7,274.8 413.6,274.7 414.8,274.7 416.7,274.6 417.9,274.5 419.8,274.5 421.0,274.4 422.8,274.3 424.1,274.3 425.9,274.2 427.1,274.1 429.0,274.0 430.2,274.0 432.1,273.9 433.3,273.9 435.2,273.8 436.4,273.7 438.2,273.6 439.5,273.6 441.3,273.5 442.5,273.5 444.4,273.4 445.6,273.3 447.5,273.3 448.7,273.2 450.6,273.2 451.8,273.1 453.6,273.0 454.9,273.0 456.7,272.9 457.9,272.9 459.8,272.8 461.0,272.8 462.9,272.5 464.1,272.3 466.0,272.0 467.2,271.8 469.0,271.4 470.3,271.2 472.1,270.9 473.3,270.7 475.2,270.4 476.4,270.1 478.3,269.8 479.5,269.6 481.4,269.3 482.6,269.1 484.4,268.8 485.7,268.6 487.5,268.3 488.7,268.1 490.6,267.8 491.8,267.6 493.7,267.3 494.9,267.1 496.8,266.9 498.0,266.7 499.8,266.4 501.1,266.2 502.9,265.9 504.1,265.8 506.0,265.5 507.2,265.3 509.1,265.1 510.3,264.9 512.2,264.7 513.4,264.5 515.2,264.3 516.5,264.1 518.3,263.9 519.5,263.7 521.4,263.5 522.6,263.4 524.5,263.1 525.7,263.0 527.6,262.8 528.8,262.7 530.6,262.5 531.9,262.3 533.7,262.1 534.9,262.0 536.8,261.8 538.0,261.7 539.9,261.6 541.1,261.5 543.0,261.3 544.2,261.2 546.0,261.0 547.3,261.0 549.1,260.8 550.3,260.7 552.2,260.6 553.4,260.5 555.3,260.4 556.5,260.3 558.4,260.2 559.6,260.2 561.4,260.1 562.7,260.0 564.5,260.0 565.7,259.9 567.6,259.9 568.8,259.8 570.7,259.8 571.9,259.7 573.8,259.7 575.0,259.7 576.8,259.7 578.1,259.7 579.9,259.7 580.5,259.7 581.8,259.7 583.6,259.7 584.8,259.7 586.7,259.7 587.9,259.7 589.8,259.8 591.0,259.8 592.8,259.9 594.1,259.9 595.9,260.0 597.2,260.1 599.0,260.2 600.2,260.2 602.1,260.4 603.3,260.4 605.2,260.6 606.4,260.7 608.2,260.9 609.5,261.0 611.3,261.2 612.6,261.3 614.4,261.5 615.6,261.7 617.5,261.9 618.7,262.1 620.6,262.3 621.8,262.5 623.6,262.8 624.9,263.1 626.7,263.4 628.0,263.7 629.8,264.1 631.0,264.3 632.9,264.8 634.1,265.1 636.0,265.7 637.2,266.0 639.0,266.7 640.3,267.1 642.1,267.9 643.4,268.4 645.8,269.1 647.7,269.0 648.9,269.0 650.8,268.9 652.0,268.9 653.8,268.8 655.1,268.8 656.9,268.7 658.1,268.7 660.0,268.6 661.2,268.6 663.1,268.6 664.3,268.6 666.2,268.6 668.0,268.6" stroke-width="2" fill="none" stroke-linejoin="round"><title>Euler</title></polyline>
<polyline class="s2" points="52.6,270.4 54.5,262.2 55.7,260.1 57.5,258.4 58.8,257.7 60.6,257.1 61.9,256.9 63.7,256.8 64.3,256.7 65.6,256.8 67.4,256.9 68.6,257.1 70.5,257.4 71.7,257.6 73.6,258.0 74.8,258.3 76.6,258.8 77.9,259.1 79.7,259.6 81.0,260.0 82.8,260.5 84.0,260.9 85.9,261.5 87.1,261.9 89.0,262.5 90.2,262.9 92.0,263.6 93.3,264.0 95.1,264.7 96.4,265.1 98.2,265.8 99.4,266.2 101.3,266.9 102.5,267.3 104.4,268.0 105.6,268.5 107.4,269.2 108.7,269.6 110.5,270.3 111.8,270.8 113.6,271.5 114.8,271.9 116.7,272.6 117.9,273.1 119.8,273.8 121.0,274.2 122.8,274.9 124.1,275.4 125.9,276.1 127.2,276.5 129.0,277.2 130.2,277.7 132.1,278.4 133.3,278.8 135.2,279.5 136.4,280.0 138.2,280.7 139.5,281.1 141.3,281.8 142.6,282.2 144.4,282.9 145.6,283.4 147.5,284.0 148.7,284.5 150.6,285.2 151.8,285.6 154.3,285.7 156.1,285.6 157.3,285.5 159.2,285.4 160.4,285.3 162.3,285.3 163.5,285.2 165.3,285.1 166.6,285.1 168.4,285.0 169.7,284.9 171.5,284.8 172.7,284.8 174.6,284.7 175.8,284.7 177.7,284.6 178.9,284.5 180.7,284.5 182.0,284.4 183.8,284.4 185.1,284.3 186.9,284.2 188.1,284.2 190.0,284.1 191.2,284.1 193.1,284.0 194.3,284.0 196.1,283.9 197.4,283.8 199.2,283.8 200.5,283.7 202.3,283.7 203.5,283.6 205.4,283.6 206.6,283.5 208.5,283.4 209.7,283.4 211.5,283.3 212.8,283.3 214.6,283.2 215.9,283.2 217.7,283.1 218.9,283.1 220.8,283.0 222.0,283.0 223.9,282.9 225.1,282.8 226.9,282.8 228.2,282.7 230.0,282.7 231.3,282.6 233.1,282.5 234.3,282.5 236.2,282.4 237.4,282.4 239.3,282.3 240.5,282.3 242.3,282.2 243.6,282.2 245.4,282.1 246.7,282.0 248.5,282.0 249.7,281.9 251.6,281.9 252.8,281.8 254.7,281.7 255.9,281.7 257.7,281.6 259.0,281.6 260.8,281.5 262.1,281.4 263.9,281.4 265.1,281.3 267.0,281.3 268.2,281.2 270.1,281.1 271.3,281.1 273.1,281.0 274.4,281.0 276.2,280.9 277.5,280.8 279.3,280.8 280.5,280.7 282.4,280.6 283.6,280.6 285.5,280.5 286.7,280.5 288.5,280.4 289.8,280.3 291.6,280.3 292.9,280.2 294.7,280.1 295.9,280.1 297.8,280.0 299.0,280.0 300.9,279.9 302.1,279.8 303.9,279.8 305.2,279.7 307.0,279.6 308.3,279.6 310.1,279.5 311.3,279.4 313.2,279.4 314.4,279.3 316.3,279.2 317.5,279.2 319.3,279.1 320.6,279.0 322.4,279.0 323.7,278.9 325.5,278.8 326.7,278.8 328.6,278.7 329.8,278.6 331.7,278.6 332.9,278.5 334.7,278.4 336.0,278.4 337.8,278.3 339.1,278.2 340.9,278.1 342.1,278.1 344.0,278.0 345.2,277.9 347.1,277.9 348.3,277.8 350.1,277.7 351.4,277.7 353.2,277.6 354.5,277.5 356.3,277.4 357.5,277.4 359.4,277.3 361.2,277.2 362.5,277.1 364.3,277.1 365.5,277.0 367.4,276.9 368.6,276.9 370.5,276.8 371.7,276.7 373.6,276.6 374.8,276.6 376.6,276.5 377.9,276.4 379.7,276.3 380.9,276.3 382.8,276.2 384.0,276.1 385.9,276.0 387.1,276.0 389.0,275.9 390.2,275.8 392.0,275.8 393.3,275.7 395.1,275.6 396.3,275.5 398.2,275.5 399.4,275.4 401.3,275.3 402.5,275.3 404.4,275.2 405.6,275.1 407.4,275.0 408.7,275.0 410.5,274.9 411.7,274.8 413.6,274.7 414.8,274.7 416.7,274.6 417.9,274.5 419.8,274.5 421.0,274.4 422.8,274.3 424.1,274.3 425.9,274.2 427.1,274.1 429.0,274.0 430.2,274.0 432.1,273.9 433.3,273.9 435.2,273.8 436.4,273.7 438.2,273.6 439.5,273.6 441.3,273.5 442.5,273.5 444.4,273.4 445.6,273.3 447.5,273.3 448.7,273.2 450.6,273.2 451.8,273.1 453.6,273.0 454.9,273.0 456.7,272.9 457.9,272.9 459.8,272.8 461.0,272.8 462.9,272.5 464.1,272.3 466.0,272.0 467.2,271.8 469.0,271.4 470.3,271.2 472.1,270.9 473.3,270.7 475.2,270.4 476.4,270.1 478.3,269.8 479.5,269.6 481.4,269.3 482.6,269.1 484.4,268.8 485.7,268.6 487.5,268.3 488.7,268.1 490.6,267.8 491.8,267.6 493.7,267.3 494.9,267.1 496.8,266.9 498.0,266.7 499.8,266.4 501.1,266.2 502.9,265.9 504.1,265.8 506.0,265.5 507.2,265.3 509.1,265.1 510.3,264.9 512.2,264.7 513.4,264.5 515.2,264.3 516.5,264.1 518.3,263.9 519.5,263.7 521.4,263.5 522.6,263.4 524.5,263.1 525.7,263.0 527.6,262.8 528.8,262.7 530.6,262.5 531.9,262.3 533.7,262.1 534.9,262.0 536.8,261.8 538.0,261.7 539.9,261.6 541.1,261.5 543.0,261.3 544.2,261.2 546.0,261.0 547.3,261.0 549.1,260.8 550.3,260.7 552.2,260.6 553.4,260.5 555.3,260.4 556.5,260.3 558.4,260.2 559.6,260.2 561.4,260.1 562.7,260.0 564.5,260.0 565.7,259.9 567.6,259.9 568.8,259.8 570.7,259.8 571.9,259.7 573.8,259.7 575.0,259.7 576.8,259.7 578.1,259.7 579.9,259.7 580.5,259.7 581.8,259.7 583.6,259.7 584.8,259.7 586.7,259.7 587.9,259.7 589.8,259.8 591.0,259.8 592.8,259.9 594.1,259.9 595.9,260.0 597.2,260.1 599.0,260.2 600.2,260.2 602.1,260.4 603.3,260.4 605.2,260.6 606.4,260.7 608.2,260.9 609.5,261.0 611.3,261.2 612.6,261.3 614.4,261.5 615.6,261.7 617.5,261.9 618.7,262.1 620.6,262.3 621.8,262.5 623.6,262.8 624.9,263.1 626.7,263.4 628.0,263.7 629.8,264.1 631.0,264.3 632.9,264.8 634.1,265.1 636.0,265.7 637.2,266.0 639.0,266.7 640.3,267.1 642.1,267.9 643.4,268.4 645.8,269.1 647.7,269.0 648.9,269.0 650.8,268.9 652.0,268.9 653.8,268.8 655.1,268.8 656.9,268.7 658.1,268.7 660.0,268.6 661.2,268.6 663.1,268.6 664.3,268.6 666.2,268.6 668.0,268.6" stroke-width="2" fill="none" stroke-linejoin="round"><title>expm</title></polyline>
<text class="ink2" x="674.0" y="272.6" font-size="10" text-anchor="start">expm</text>
<text class="ink2" x="674.0" y="284.6" font-size="10" text-anchor="start">Euler</text>
<text class="ink2" x="674.0" y="377.8" font-size="10" text-anchor="start">RK4</text>
</svg>
